HIERARCHY
ROOT Hips
{
	OFFSET 0.000000 121.760803 0.000000
	CHANNELS 6 Xposition Yposition Zposition Xrotation Yrotation Zrotation 
	JOINT Spine
	{
		OFFSET 0.072000 7.257294 -0.789700
		CHANNELS 3 Xrotation Yrotation Zrotation
		JOINT Spine1
		{
			OFFSET 0.000000 12.508769 -0.658067
			CHANNELS 3 Xrotation Yrotation Zrotation
			JOINT Spine1_split
			{
				OFFSET 0.000000 12.508769 -0.658067
				CHANNELS 3 Xrotation Yrotation Zrotation
				JOINT Spine2
				{
					OFFSET 0.000000 12.508769 -0.658067
					CHANNELS 3 Xrotation Yrotation Zrotation
					JOINT Neck
					{
						OFFSET 0.000000 14.033295 7.520400
						CHANNELS 3 Xrotation Yrotation Zrotation
						JOINT Head
						{
							OFFSET 0.000000 8.198502 5.703100
							CHANNELS 3 Xrotation Yrotation Zrotation
							JOINT HeadTop_End
							{
								OFFSET 0.000000 17.760803 13.332701
								CHANNELS 3 Xrotation Yrotation Zrotation
								End Site
								{
									OFFSET 0.000000 0.000000 0.000000
								}
							}
						}
					}
					JOINT LeftShoulder
					{
						OFFSET 6.292450 5.785301 -0.669000
						CHANNELS 3 Xrotation Yrotation Zrotation
						JOINT LeftShoulder_split
						{
							OFFSET 6.292450 5.785301 -0.669000
							CHANNELS 3 Xrotation Yrotation Zrotation
							JOINT LeftArm
							{
								OFFSET 13.907140 -6.093903 1.965100
								CHANNELS 3 Xrotation Yrotation Zrotation
								JOINT LeftForeArm
								{
									OFFSET 34.140198 0.000000 0.000000
									CHANNELS 3 Xrotation Yrotation Zrotation
									JOINT LeftHand
									{
										OFFSET 40.960209 0.000000 0.000000
										CHANNELS 3 Xrotation Yrotation Zrotation
										JOINT LeftHandThumb1
										{
											OFFSET 10.006996 -7.170425 9.573125
											CHANNELS 3 Xrotation Yrotation Zrotation
											JOINT LeftHandThumb2
											{
												OFFSET 1.835007 -1.059448 1.059443
												CHANNELS 3 Xrotation Yrotation Zrotation
												JOINT LeftHandThumb3
												{
													OFFSET 2.112267 -1.219513 1.219518
													CHANNELS 3 Xrotation Yrotation Zrotation
													JOINT LeftHandThumb4
													{
														OFFSET 4.843811 -2.796570 2.796576
														CHANNELS 3 Xrotation Yrotation Zrotation
														End Site
														{
															OFFSET 0.000000 0.000000 0.000000
														}
													}
												}
											}
										}
										JOINT LeftHandIndex1
										{
											OFFSET 18.389847 -0.922348 4.596882
											CHANNELS 3 Xrotation Yrotation Zrotation
											JOINT LeftHandIndex2
											{
												OFFSET 4.711273 0.000000 0.000000
												CHANNELS 3 Xrotation Yrotation Zrotation
												JOINT LeftHandIndex3
												{
													OFFSET 2.886131 0.000000 0.000000
													CHANNELS 3 Xrotation Yrotation Zrotation
													JOINT LeftHandIndex4
													{
														OFFSET 6.145912 0.000000 0.000000
														CHANNELS 3 Xrotation Yrotation Zrotation
														End Site
														{
															OFFSET 0.000000 0.000000 0.000000
														}
													}
												}
											}
										}
										JOINT LeftHandMiddle1
										{
											OFFSET 18.013008 0.000000 0.000000
											CHANNELS 3 Xrotation Yrotation Zrotation
											JOINT LeftHandMiddle2
											{
												OFFSET 4.946693 0.000000 0.000000
												CHANNELS 3 Xrotation Yrotation Zrotation
												JOINT LeftHandMiddle3
												{
													OFFSET 3.342232 0.000000 0.000000
													CHANNELS 3 Xrotation Yrotation Zrotation
													JOINT LeftHandMiddle4
													{
														OFFSET 4.461754 0.000000 0.000000
														CHANNELS 3 Xrotation Yrotation Zrotation
														End Site
														{
															OFFSET 0.000000 0.000000 0.000000
														}
													}
												}
											}
										}
										JOINT LeftHandRing1
										{
											OFFSET 15.849892 -0.102921 -4.126150
											CHANNELS 3 Xrotation Yrotation Zrotation
											JOINT LeftHandRing2
											{
												OFFSET 3.527054 0.000000 0.000000
												CHANNELS 3 Xrotation Yrotation Zrotation
												JOINT LeftHandRing3
												{
													OFFSET 2.961098 0.000000 0.000000
													CHANNELS 3 Xrotation Yrotation Zrotation
													JOINT LeftHandRing4
													{
														OFFSET 4.927200 0.000000 0.000000
														CHANNELS 3 Xrotation Yrotation Zrotation
														End Site
														{
															OFFSET 0.000000 0.000000 0.000000
														}
													}
												}
											}
										}
										JOINT LeftHandPinky1
										{
											OFFSET 12.791824 -0.832031 -6.799156
											CHANNELS 3 Xrotation Yrotation Zrotation
											JOINT LeftHandPinky2
											{
												OFFSET 3.327133 0.000000 0.000000
												CHANNELS 3 Xrotation Yrotation Zrotation
												JOINT LeftHandPinky3
												{
													OFFSET 3.014900 0.000000 0.000000
													CHANNELS 3 Xrotation Yrotation Zrotation
													JOINT LeftHandPinky4
													{
														OFFSET 5.847786 0.000000 0.000000
														CHANNELS 3 Xrotation Yrotation Zrotation
														End Site
														{
															OFFSET 0.000000 0.000000 0.000000
														}
													}
												}
											}
										}
									}
								}
							}
						}
					}
					JOINT RightShoulder
					{
						OFFSET -6.292450 5.785301 -0.669000
						CHANNELS 3 Xrotation Yrotation Zrotation
						JOINT RightShoulder_split
						{
							OFFSET -6.292450 5.785301 -0.669000
							CHANNELS 3 Xrotation Yrotation Zrotation
							JOINT RightArm
							{
								OFFSET -13.907140 -6.093903 1.965100
								CHANNELS 3 Xrotation Yrotation Zrotation
								JOINT RightForeArm
								{
									OFFSET -34.140198 0.000000 0.000000
									CHANNELS 3 Xrotation Yrotation Zrotation
									JOINT RightHand
									{
										OFFSET -40.960209 0.000000 0.000000
										CHANNELS 3 Xrotation Yrotation Zrotation
										JOINT RightHandThumb1
										{
											OFFSET -10.007050 -7.170456 9.573117
											CHANNELS 3 Xrotation Yrotation Zrotation
											JOINT RightHandThumb2
											{
												OFFSET -1.835007 -1.059448 1.059443
												CHANNELS 3 Xrotation Yrotation Zrotation
												JOINT RightHandThumb3
												{
													OFFSET -2.112267 -1.219513 1.219518
													CHANNELS 3 Xrotation Yrotation Zrotation
													JOINT RightHandThumb4
													{
														OFFSET -4.843834 -2.796585 2.796590
														CHANNELS 3 Xrotation Yrotation Zrotation
														End Site
														{
															OFFSET 0.000000 0.000000 0.000000
														}
													}
												}
											}
										}
										JOINT RightHandIndex1
										{
											OFFSET -18.389870 -0.922424 4.596786
											CHANNELS 3 Xrotation Yrotation Zrotation
											JOINT RightHandIndex2
											{
												OFFSET -4.711273 0.000000 0.000000
												CHANNELS 3 Xrotation Yrotation Zrotation
												JOINT RightHandIndex3
												{
													OFFSET -2.886131 0.000000 0.000000
													CHANNELS 3 Xrotation Yrotation Zrotation
													JOINT RightHandIndex4
													{
														OFFSET -6.145920 0.000000 0.000000
														CHANNELS 3 Xrotation Yrotation Zrotation
														End Site
														{
															OFFSET 0.000000 0.000000 0.000000
														}
													}
												}
											}
										}
										JOINT RightHandMiddle1
										{
											OFFSET -18.013008 0.000000 0.000000
											CHANNELS 3 Xrotation Yrotation Zrotation
											JOINT RightHandMiddle2
											{
												OFFSET -4.946693 0.000000 0.000000
												CHANNELS 3 Xrotation Yrotation Zrotation
												JOINT RightHandMiddle3
												{
													OFFSET -3.342232 0.000000 0.000000
													CHANNELS 3 Xrotation Yrotation Zrotation
													JOINT RightHandMiddle4
													{
														OFFSET -4.461754 0.000000 0.000000
														CHANNELS 3 Xrotation Yrotation Zrotation
														End Site
														{
															OFFSET 0.000000 0.000000 0.000000
														}
													}
												}
											}
										}
										JOINT RightHandRing1
										{
											OFFSET -15.849876 -0.102936 -4.126237
											CHANNELS 3 Xrotation Yrotation Zrotation
											JOINT RightHandRing2
											{
												OFFSET -3.527054 0.000000 0.000000
												CHANNELS 3 Xrotation Yrotation Zrotation
												JOINT RightHandRing3
												{
													OFFSET -2.961098 0.000000 0.000000
													CHANNELS 3 Xrotation Yrotation Zrotation
													JOINT RightHandRing4
													{
														OFFSET -4.927200 0.000000 0.000000
														CHANNELS 3 Xrotation Yrotation Zrotation
														End Site
														{
															OFFSET 0.000000 0.000000 0.000000
														}
													}
												}
											}
										}
										JOINT RightHandPinky1
										{
											OFFSET -12.791786 -0.832077 -6.799222
											CHANNELS 3 Xrotation Yrotation Zrotation
											JOINT RightHandPinky2
											{
												OFFSET -3.327133 0.000000 0.000000
												CHANNELS 3 Xrotation Yrotation Zrotation
												JOINT RightHandPinky3
												{
													OFFSET -3.014900 0.000000 0.000000
													CHANNELS 3 Xrotation Yrotation Zrotation
													JOINT RightHandPinky4
													{
														OFFSET -5.847786 0.000000 0.000000
														CHANNELS 3 Xrotation Yrotation Zrotation
														End Site
														{
															OFFSET 0.000000 0.000000 0.000000
														}
													}
												}
											}
										}
									}
								}
							}
						}
					}
				}
			}
		}
	}
	JOINT LeftUpLeg
	{
		OFFSET 13.026900 -6.336304 -1.092800
		CHANNELS 3 Xrotation Yrotation Zrotation
		JOINT LeftLeg
		{
			OFFSET 0.524474 -46.096886 9.782700
			CHANNELS 3 Xrotation Yrotation Zrotation
			JOINT LeftFoot
			{
				OFFSET -0.524474 -53.427422 -12.948200
				CHANNELS 3 Xrotation Yrotation Zrotation
				JOINT LeftToeBase
				{
					OFFSET 0.192200 -14.009700 16.364100
					CHANNELS 3 Xrotation Yrotation Zrotation
					JOINT LeftToe_End
					{
						OFFSET -1.784700 -0.561700 9.474800
						CHANNELS 3 Xrotation Yrotation Zrotation
						End Site
						{
							OFFSET 0.000000 0.000000 0.000000
						}
					}
				}
			}
		}
	}
	JOINT RightUpLeg
	{
		OFFSET -12.883000 -6.336304 -1.092800
		CHANNELS 3 Xrotation Yrotation Zrotation
		JOINT RightLeg
		{
			OFFSET -0.524587 -46.096825 9.782800
			CHANNELS 3 Xrotation Yrotation Zrotation
			JOINT RightFoot
			{
				OFFSET 0.524587 -53.427383 -12.948300
				CHANNELS 3 Xrotation Yrotation Zrotation
				JOINT RightToeBase
				{
					OFFSET -0.192200 -14.009700 16.364100
					CHANNELS 3 Xrotation Yrotation Zrotation
					JOINT RightToe_End
					{
						OFFSET 1.784700 -0.561700 9.474800
						CHANNELS 3 Xrotation Yrotation Zrotation
						End Site
						{
							OFFSET 0.000000 0.000000 0.000000
						}
					}
				}
			}
		}
	}
}
MOTION
Frames: 4
Frame Time: 0.016667
0.188594 63.690857 11.916141 0.144489 0.157851 0.914077 10.430372 0.028637 -1.522671 -0.199255 0.213327 -0.355463 0.000000 0.000000 0.000000 -0.199585 0.248526 -0.300880 -1.001766 -1.284342 0.469464 -8.883496 -4.327063 -5.321560 -0.000000 -0.000000 -0.000000 0.823520 -15.262027 -7.868752 0.000000 0.000000 0.000000 4.746719 -21.216444 -54.862217 -0.000063 -62.197492 -0.000080 31.062983 4.315244 41.770234 6.610610 1.798255 20.801502 2.716397 20.172569 -24.389166 -5.537278 29.849539 5.070894 -0.000001 -0.000005 -0.000001 -0.235313 2.798412 -26.913112 0.396824 2.121289 -21.189296 0.083138 0.984439 -9.653141 -0.000002 -0.000003 -0.000001 1.299140 7.334327 -16.511089 0.329943 1.940084 -19.302241 0.233113 1.637767 -16.201251 0.000002 -0.000001 0.000001 1.797283 9.807937 -14.184136 0.205912 1.541072 -15.220195 0.265318 1.744719 -17.292070 -0.000002 0.000001 -0.000003 2.041304 10.867596 -13.918923 0.168510 1.396424 -13.761339 0.107173 1.116569 -10.963880 0.000002 -0.000001 0.000001 3.171094 -4.378724 8.782886 0.000000 0.000000 0.000000 -3.950252 37.253392 63.733643 0.000010 55.137928 -0.000039 43.537306 4.741024 -36.277945 -9.383518 -1.613329 -17.604712 3.557064 -24.337031 34.656837 -6.608454 -37.497329 -11.176184 -0.000001 0.000002 0.000001 2.957830 1.012881 13.529998 0.472460 -2.045692 26.006731 0.059758 -0.744416 9.177790 -0.000000 0.000000 -0.000004 0.105537 -3.664951 2.525401 0.584982 -2.261667 29.000433 0.020461 -0.436581 5.367126 -0.000001 -0.000000 0.000003 0.456445 -7.644269 4.306123 0.107459 -0.995707 12.318851 0.072393 -0.818810 10.104474 -0.000000 0.000001 -0.000001 -11.162309 -10.227879 7.169817 0.029112 -0.520522 6.403077 0.028645 -0.516314 6.351264 -0.000000 0.000001 -0.000000 -91.851715 -8.994692 13.334957 81.196954 4.000080 -0.427286 12.387538 -7.102012 -7.798421 -0.103114 -0.000000 0.000001 0.000000 -0.000000 -0.000000 -93.036500 10.007382 -9.096380 81.263870 -4.060246 -1.316185 13.625240 0.313525 8.685023 -0.191620 0.000004 0.000001 -0.000000 -0.000000 -0.000000 
0.173431 63.753319 11.838984 -0.414208 0.142916 1.009745 10.212721 -0.005490 -1.520134 0.247319 0.210143 -0.363243 0.000000 0.000000 0.000000 0.247050 0.242483 -0.311429 -0.863847 -1.257150 0.466748 -9.376976 -4.249640 -5.115972 -0.000000 -0.000000 -0.000000 0.823222 -15.329304 -7.716561 0.000000 0.000000 0.000000 4.455914 -21.455905 -54.700851 -0.000021 -61.301248 -0.000017 31.122365 4.160816 41.654383 7.239347 2.016995 20.046614 2.611798 19.816542 -24.507491 -5.747160 29.560079 5.256800 -0.000001 0.000001 0.000002 -0.214970 2.733568 -26.352483 0.412473 2.161184 -21.608033 0.074597 0.932897 -9.143223 -0.000000 -0.000001 0.000001 1.260141 7.277777 -16.156654 0.350269 1.997099 -19.893274 0.225084 1.609841 -15.917570 0.000000 -0.000001 0.000002 1.754438 9.708203 -14.032343 0.229572 1.625497 -16.076488 0.246851 1.684235 -16.674556 -0.000002 -0.000001 0.000001 1.966966 10.727171 -13.936874 0.189207 1.478283 -14.585671 0.096708 1.061228 -10.414306 -0.000002 0.000001 -0.000002 3.130741 -4.188132 9.128583 0.000000 0.000000 0.000000 -3.788728 37.492442 62.416652 -0.000032 54.701431 0.000034 38.426101 6.434232 -35.338781 -9.061917 -1.287306 -15.921451 3.457716 -24.287014 33.909984 -6.735794 -36.930666 -11.141171 -0.000002 -0.000001 -0.000002 2.928275 1.054569 13.023776 0.477729 -2.056470 26.153961 0.054180 -0.709071 8.738817 0.000002 -0.000001 -0.000001 0.100444 -3.662354 2.284178 0.616260 -2.317142 29.783282 0.019158 -0.422514 5.193899 0.000002 0.000001 0.000001 0.445617 -7.590681 4.231999 0.120849 -1.055145 13.066942 0.071846 -0.815784 10.066641 -0.000002 0.000000 -0.000001 -11.183155 -10.282694 7.459226 0.034677 -0.567826 6.987822 0.028693 -0.516734 6.356513 0.000003 -0.000000 0.000003 -91.206938 -8.842593 13.377903 81.111276 3.978968 -0.426337 12.380374 -7.099994 -7.772331 -0.103114 -0.000001 0.000001 -0.000000 0.000000 0.000000 -92.466473 9.952750 -9.194898 81.218852 -3.945449 -1.320268 13.625146 0.299732 8.557907 -0.191620 0.000004 0.000001 0.000000 -0.000001 -0.000000 
0.160667 63.824150 11.767247 -0.957285 0.138045 1.101572 10.002005 -0.035220 -1.515430 0.733888 0.214279 -0.373963 0.000000 0.000000 0.000000 0.733707 0.243699 -0.324692 -0.761070 -1.231933 0.475966 -10.032739 -4.165828 -4.919812 -0.000000 0.000000 0.000000 0.826522 -15.600726 -7.588855 0.000000 0.000000 0.000000 4.308932 -21.403929 -54.419768 -0.000021 -61.023738 -0.000018 30.015420 3.616493 41.129555 7.896442 2.237077 19.250663 2.502430 19.443476 -24.632778 -5.966434 29.255490 5.449300 0.000000 -0.000001 -0.000000 -0.192902 2.666140 -25.764483 0.429196 2.202892 -22.047212 0.066143 0.878787 -8.608455 -0.000000 0.000000 -0.000003 1.219823 7.218228 -15.785020 0.372179 2.056624 -20.513210 0.216811 1.580532 -15.620060 0.000002 0.000001 -0.000003 1.710062 9.602934 -13.874536 0.255662 1.713410 -16.971926 0.228156 1.620627 -16.026977 -0.000001 0.000001 -0.000001 1.888933 10.579974 -13.956026 0.212112 1.563653 -15.448802 0.086334 1.003104 -9.837939 0.000000 0.000000 0.000001 3.082116 -3.976042 9.440668 0.000000 0.000000 0.000000 -3.601770 37.650766 61.027406 -0.000026 54.399028 0.000031 33.444271 7.545273 -34.227283 -8.709556 -0.934999 -14.170916 3.357932 -24.234213 33.129150 -6.869790 -36.336620 -11.102362 -0.000001 -0.000002 -0.000000 2.897929 1.099069 12.492941 0.483303 -2.067717 26.308355 0.048631 -0.671998 8.278419 0.000001 0.000001 0.000001 0.095048 -3.659460 2.031258 0.649812 -2.374756 30.602676 0.017855 -0.407778 5.012200 0.000001 0.000002 -0.000001 0.434435 -7.534143 4.154908 0.135675 -1.117117 13.849633 0.071289 -0.812586 10.026944 0.000003 -0.000001 0.000004 -11.204852 -10.340615 7.762715 0.041024 -0.617385 7.601109 0.028739 -0.517176 6.362017 0.000003 -0.000001 -0.000001 -90.573991 -8.683971 13.410198 81.017149 3.953784 -0.424316 12.373357 -7.098652 -7.728314 -0.103114 -0.000001 0.000001 0.000000 -0.000000 -0.000000 -91.895134 9.903190 -9.300074 81.169558 -3.842474 -1.324212 13.617072 0.286997 8.442727 -0.191620 0.000004 0.000001 0.000000 -0.000000 -0.000000 
0.152525 63.903130 11.691578 -1.484897 0.137517 1.191691 9.796485 -0.062607 -1.509466 1.248922 0.222378 -0.387395 0.000000 0.000000 0.000000 1.248840 0.248826 -0.340489 -0.681238 -1.208184 0.490105 -10.819936 -4.081876 -4.732363 -0.000000 -0.000000 0.000000 0.832469 -15.979340 -7.489318 0.000000 0.000000 0.000000 4.238265 -21.173443 -54.038886 0.000025 -61.236683 0.000029 28.124113 2.741982 40.412313 8.575144 2.451613 18.424806 2.389393 19.058791 -24.763356 -6.191573 28.940048 5.645575 -0.000001 -0.000002 0.000003 -0.169342 2.597103 -25.157453 0.446788 2.245827 -22.500627 0.057945 0.822818 -8.056411 -0.000000 -0.000001 0.000002 1.178815 7.156445 -15.401462 0.395502 2.117828 -21.153222 0.208410 1.550222 -15.312946 0.000000 0.000001 -0.000001 1.664861 9.493861 -13.712413 0.283997 1.803583 -17.895377 0.209641 1.554728 -15.358471 0.000000 -0.000002 0.000002 1.808323 10.428092 -13.976049 0.237081 1.651359 -16.339453 0.076232 0.943004 -9.242918 -0.000000 -0.000001 0.000003 3.026185 -3.737179 9.731913 0.000000 0.000000 0.000000 -3.408156 37.697597 59.557556 0.000031 54.333356 -0.000034 28.528894 8.185352 -32.859863 -8.343274 -0.556710 -12.373154 3.258096 -24.179408 32.324365 -7.008190 -35.723638 -11.060081 -0.000001 -0.000001 -0.000000 2.867309 1.145876 11.945009 0.489052 -2.079357 26.467780 0.043222 -0.633680 7.803124 0.000001 0.000000 0.000003 0.089398 -3.656426 1.770178 0.685269 -2.433682 31.448056 0.016545 -0.392560 4.824644 0.000001 -0.000000 -0.000003 0.423075 -7.475562 4.075716 0.151875 -1.180821 14.656906 0.070709 -0.809331 9.985951 0.000001 -0.000002 0.000002 -11.227098 -10.400881 8.075987 0.048116 -0.668447 8.234246 0.028807 -0.517646 6.367706 -0.000004 0.000000 0.000001 -89.950682 -8.518453 13.433169 80.908857 3.934422 -0.422027 12.372536 -7.097433 -7.673489 -0.103114 -0.000001 0.000001 0.000000 0.000001 0.000000 -91.325729 9.856545 -9.409438 81.104685 -3.744294 -1.328622 13.613305 0.276030 8.330347 -0.191620 0.000005 0.000001 0.000000 -0.000000 0.000000 
